<svg xmlns="http://www.w3.org/2000/svg" id="code" viewBox="0 0 512 512" width="36" height="36"><path d="M486.881 38.48H264.017v-9.086a8.017 8.017 0 0 0-16.034 0v9.086H25.119C11.268 38.48 0 49.748 0 63.599v384.802c0 13.851 11.268 25.119 25.119 25.119h222.864v9.086a8.017 8.017 0 0 0 16.034 0v-9.086h222.864c13.851 0 25.119-11.268 25.119-25.119V63.599c0-13.851-11.268-25.119-25.119-25.119zM16.033 63.599c0-5.01 4.076-9.086 9.086-9.086h17.637v26.722H16.033V63.599zm231.95 314.939l-57.376-153.001h57.376v153.001zm-80.512-169.035h-63.14l45.92-45.921 17.22 45.921zm-2.517-52.376h69.96l-52.47 46.64-17.49-46.64zm8.53 68.41l58.411 155.762-129.802-155.762h71.391zm74.499-16.034h-47.858l47.858-42.541v42.541zm0-68.409h-94.597a8.012 8.012 0 0 0-5.668 2.348l-68.409 68.409a8.015 8.015 0 0 0-.49 10.8l169.164 202.998v31.837H25.119c-5.01 0-9.086-4.076-9.086-9.086V97.269h231.95v43.825zm0-59.858H58.789V54.514h189.194v26.722zm178.506-26.722h26.722v26.722h-26.722V54.514zm-42.756 0h26.722v26.722h-26.722V54.514zm-119.716 0H367.7v26.722H264.017V54.514zm231.95 393.887c0 5.01-4.076 9.086-9.086 9.086H264.017V97.269h231.95v351.132zm0-367.165h-26.722V54.514h17.637c5.01 0 9.086 4.076 9.086 9.086v17.636z" fill="#FFF"/><path d="M315.858 149.645h-17.102a8.017 8.017 0 0 0 0 16.034h17.102a8.017 8.017 0 0 0 0-16.034zm0 68.409h-17.102a8.017 8.017 0 0 0 0 16.034h17.102a8.017 8.017 0 0 0 0-16.034zm25.653-34.204h-17.102a8.017 8.017 0 0 0 0 16.034h17.102a8.017 8.017 0 0 0 0-16.034zm119.717-34.205H350.063a8.017 8.017 0 0 0 0 16.034h111.165a8.017 8.017 0 0 0 0-16.034zm0 68.409H350.063a8.017 8.017 0 0 0 0 16.034h111.165a8.017 8.017 0 0 0 0-16.034zm0-34.204h-85.511a8.017 8.017 0 0 0 0 16.034h85.511a8.017 8.017 0 0 0 0-16.034zm-119.717 68.409h-17.102a8.017 8.017 0 0 0 0 16.034h17.102a8.017 8.017 0 0 0 0-16.034zm119.717 0h-85.511a8.017 8.017 0 0 0 0 16.034h85.511a8.017 8.017 0 0 0 0-16.034zm-145.37 34.205h-17.102a8.017 8.017 0 0 0 0 16.034h17.102a8.017 8.017 0 0 0 0-16.034zm0 68.409h-17.102a8.017 8.017 0 0 0 0 16.034h17.102a8.017 8.017 0 0 0 0-16.034zm25.653-34.205h-17.102a8.017 8.017 0 0 0 0 16.034h17.102a8.017 8.017 0 0 0 0-16.034zm119.717-34.204H350.063a8.017 8.017 0 0 0 0 16.034h111.165a8.017 8.017 0 0 0 0-16.034zm0 68.409H350.063a8.017 8.017 0 0 0 0 16.034h111.165a8.017 8.017 0 0 0 0-16.034zm0-34.205h-85.511a8.017 8.017 0 0 0 0 16.034h85.511a8.017 8.017 0 0 0 0-16.034zm-119.717 68.409h-17.102a8.017 8.017 0 0 0 0 16.034h17.102a8.017 8.017 0 0 0 0-16.034zm119.717 0h-85.511a8.017 8.017 0 0 0 0 16.034h85.511a8.017 8.017 0 0 0 0-16.034z" fill="#FFF"/></svg>