<svg xmlns="http://www.w3.org/2000/svg" id="coding-1" viewBox="0 0 491.52 491.52" width="36" height="36"><path d="M491.52 399.36V20.48H0v378.88h153.6v51.2h-40.96v20.48h266.24v-20.48h-40.96v-51.2h153.6zM20.48 40.96h450.56v276.48H20.48V40.96zm296.96 409.6H174.08v-51.2h143.36v51.2zM20.48 378.88v-40.96h450.56v40.96H20.48z" fill="#FFF"/><path fill="#FFF" d="M307.2 61.44h133.12v20.48H307.2zm-71.68 0h51.2v20.48h-51.2zm-40.96 0h20.48v20.48h-20.48zm-40.96 0h20.48v20.48H153.6zm163.84 153.6h122.88v20.48H317.44zm-40.96 0h20.48v20.48h-20.48zm-40.96 0H256v20.48h-20.48zm102.4-51.2h102.4v20.48h-102.4zm-143.36 0h122.88v20.48H194.56zm30.72-51.2h40.96v20.48h-40.96zm61.44 0h153.6v20.48h-153.6zm-235.52 0h153.6v20.48H51.2zm194.56 153.6h194.56v20.48H245.76zm-69.56-63.56l-14.48 14.48 28.6 28.6-28.6 28.6 14.48 14.48 43.08-43.08zm-81.92 14.48L79.8 202.68l-43.08 43.08 43.08 43.08 14.48-14.48-28.6-28.6z"/><path transform="rotate(-68.217 128.001 245.777)" fill="#FFF" d="M72.86 235.538h110.281v20.48H72.86z"/></svg>