<svg xmlns="http://www.w3.org/2000/svg" id="multimedia" viewBox="0 0 60 60" width="36" height="36"><g fill="#FFF"><path d="M59 0H1C.4 0 0 .4 0 1v58c0 .6.4 1 1 1h58c.6 0 1-.4 1-1V1c0-.6-.4-1-1-1zm-1 2v8H2V2h56zM2 58V12h56v46H2z"/><path d="M5 5h5v2H5zm8 0h5v2h-5zm23 25H6c-.6 0-1 .4-1 1v23c0 .6.4 1 1 1h30c.6 0 1-.4 1-1V31c0-.6-.4-1-1-1zm-1 23H7V32h28v21zm19-38H23c-.6 0-1 .4-1 1v10c0 .6.4 1 1 1h31c.6 0 1-.4 1-1V16c0-.6-.4-1-1-1zm-1 10H24v-8h29v8zM6 27h12c.6 0 1-.4 1-1V16c0-.6-.4-1-1-1H6c-.6 0-1 .4-1 1v10c0 .6.4 1 1 1zm1-2v-3h10v3H7zm10-8v3H7v-3h10zm23 14h15v2H40zm0 5h15v2H40zm0 5h15v2H40zm0 5h15v2H40zm0 5h15v2H40z"/><path d="M19 48h4v2h-4zm-6 0h4v2h-4zm12 0h4v2h-4z"/></g></svg>