<svg xmlns="http://www.w3.org/2000/svg" id="wordpress" viewBox="0 0 512 512" width="36" height="36"><path d="M503.686 79.457C491.8 49.286 479 39.229 427.8 39.229c-31.086 0-54.857 23.771-54.857 54.857 0 16.457 9.143 32 18.286 48.457 2.743 6.4 7.314 12.8 10.057 19.2l3.657 7.314c8.229 16.457 13.714 28.343 13.714 53.029 0 10.057-1.829 21.029-6.4 36.571v.914l-30.171 90.514-78.356-222.007c2.651-.342 5.303-.699 7.956-1.078 14.629 0 26.514-12.8 26.514-27.429 0-15.543-11.886-27.429-27.429-27.429h-1.829c-35.657 5.486-71.314 5.486-106.971 0h-1.829c-15.543 0-27.429 11.886-27.429 27.429C172.714 114.2 184.6 127 199.229 127c3.063.459 6.158.882 9.264 1.286L245.857 223l-45.714 134.4-82.293-230.244c.307-.053.614-.101.921-.156 14.629-.914 26.514-12.8 26.514-27.429 0-15.543-11.886-27.429-27.429-27.429h-1.829c-29.257 5.486-58.514 5.486-87.771 0h-1.829C10.886 72.143-1 84.029-1 99.571c0 14.373 11.476 26.09 25.752 27.363L137.057 434.2c6.4 17.371 20.114 30.171 38.4 34.743 4.571.914 8.229 1.829 12.8 1.829 22.857 0 44.8-15.543 52.114-37.486l52.114-155.429 54.857 155.429c4.571 12.8 13.714 21.943 23.771 25.6 9.143 3.657 19.2 2.743 28.343-1.829 11.886-4.571 21.029-14.629 24.686-26.514L491.8 227.571c15.543-39.314 19.2-74.057 19.2-96v-14.629c0-12.799-1.829-25.599-7.314-37.485zm-303.543 29.257c-5.486 0-9.143-3.657-9.143-9.143 0-4.571 3.657-9.143 8.229-9.143 37.486 6.4 74.057 6.4 112.457 0 4.571 0 8.229 4.571 8.229 9.143 0 5.486-3.657 9.143-9.143 9.143h-1.829c-5.44.837-10.879 1.53-16.319 2.112a14.227 14.227 0 0 0-2.881-.283 334.267 334.267 0 0 1-74.057 0l-.052.002a357.019 357.019 0 0 1-13.662-1.831h-1.829zM17.286 99.571c0-4.571 3.657-9.143 8.229-9.143 31.086 6.4 62.171 6.4 93.257 0 4.571 0 8.229 4.571 8.229 9.143 0 5.486-3.657 9.143-9.143 9.143h-1.829a244.044 244.044 0 0 1-11.349 1.849c-.178-.008-.356-.02-.537-.02-1.527.244-3.059.469-4.594.681-21.34 2.499-42.679 2.065-64.019-1.273-.596-.109-1.192-.208-1.787-.322-.08 0-.16.007-.24.008a246.207 246.207 0 0 1-5.246-.922h-1.829c-5.485-.001-9.142-3.658-9.142-9.144zM491.8 132.486c0 20.114-2.743 53.029-17.371 89.6l-68.571 202.971c-2.743 7.314-8.229 12.8-15.543 15.543-4.571 1.829-9.143 2.743-13.714.914-5.486-1.829-10.971-7.314-13.714-14.629l-64-179.2c-.914-3.657-4.571-6.4-8.229-6.4-3.657 0-7.314 2.743-8.229 6.4L223 426.886c-5.486 17.371-24.686 28.343-42.971 23.771-11.886-2.743-21.029-10.971-25.6-22.857L45.708 129.96c8.812 1.009 17.623 1.612 26.435 1.612 9.155 0 18.31-.647 27.464-1.729l93.221 258.643c.914 3.657 4.571 6.4 8.229 6.4 3.657 0 7.314-2.743 8.229-6.4l54.857-162.743c.914-1.829.914-4.571 0-6.4l-34.445-88.832c8.508.668 17 1.061 25.302 1.061 9.879 0 20.03-.547 30.299-1.471l89.472 251.071c.914 3.657 4.571 6.4 8.229 6.4s7.314-2.743 8.229-6.4l38.4-114.286c.914-.914.914-.914.914-1.829 5.486-17.371 7.314-31.086 7.314-42.057 0-29.257-7.314-43.886-15.543-61.257l-3.657-7.314c-3.657-6.4-7.314-13.714-10.971-20.114-8.229-13.715-15.543-27.429-15.543-39.315 0-23.771 19.2-36.571 36.571-36.571 47.543 0 51.2 9.143 57.6 28.343 3.657 9.143 5.486 19.2 5.486 30.171v15.543z" fill="#FFF" transform="translate(1 1)"/></svg>