<svg xmlns="http://www.w3.org/2000/svg" xmlns:xlink="http://www.w3.org/1999/xlink"><defs>
    <symbol id="icon-code" viewBox="0 0 512 512">
      <title>icon-code</title>
      <path d="M486.881 38.48H264.017v-9.086a8.017 8.017 0 0 0-16.034 0v9.086H25.119C11.268 38.48 0 49.748 0 63.599v384.802c0 13.851 11.268 25.119 25.119 25.119h222.864v9.086a8.017 8.017 0 0 0 16.034 0v-9.086h222.864c13.851 0 25.119-11.268 25.119-25.119V63.599c0-13.851-11.268-25.119-25.119-25.119zM16.033 63.599c0-5.01 4.076-9.086 9.086-9.086h17.637v26.722H16.033V63.599zm231.95 314.939l-57.376-153.001h57.376v153.001zm-80.512-169.035h-63.14l45.92-45.921 17.22 45.921zm-2.517-52.376h69.96l-52.47 46.64-17.49-46.64zm8.53 68.41l58.411 155.762-129.802-155.762h71.391zm74.499-16.034h-47.858l47.858-42.541v42.541zm0-68.409h-94.597a8.012 8.012 0 0 0-5.668 2.348l-68.409 68.409a8.015 8.015 0 0 0-.49 10.8l169.164 202.998v31.837H25.119c-5.01 0-9.086-4.076-9.086-9.086V97.269h231.95v43.825zm0-59.858H58.789V54.514h189.194v26.722zm178.506-26.722h26.722v26.722h-26.722V54.514zm-42.756 0h26.722v26.722h-26.722V54.514zm-119.716 0H367.7v26.722H264.017V54.514zm231.95 393.887c0 5.01-4.076 9.086-9.086 9.086H264.017V97.269h231.95v351.132zm0-367.165h-26.722V54.514h17.637c5.01 0 9.086 4.076 9.086 9.086v17.636z" fill="#FFF"/><path d="M315.858 149.645h-17.102a8.017 8.017 0 0 0 0 16.034h17.102a8.017 8.017 0 0 0 0-16.034zm0 68.409h-17.102a8.017 8.017 0 0 0 0 16.034h17.102a8.017 8.017 0 0 0 0-16.034zm25.653-34.204h-17.102a8.017 8.017 0 0 0 0 16.034h17.102a8.017 8.017 0 0 0 0-16.034zm119.717-34.205H350.063a8.017 8.017 0 0 0 0 16.034h111.165a8.017 8.017 0 0 0 0-16.034zm0 68.409H350.063a8.017 8.017 0 0 0 0 16.034h111.165a8.017 8.017 0 0 0 0-16.034zm0-34.204h-85.511a8.017 8.017 0 0 0 0 16.034h85.511a8.017 8.017 0 0 0 0-16.034zm-119.717 68.409h-17.102a8.017 8.017 0 0 0 0 16.034h17.102a8.017 8.017 0 0 0 0-16.034zm119.717 0h-85.511a8.017 8.017 0 0 0 0 16.034h85.511a8.017 8.017 0 0 0 0-16.034zm-145.37 34.205h-17.102a8.017 8.017 0 0 0 0 16.034h17.102a8.017 8.017 0 0 0 0-16.034zm0 68.409h-17.102a8.017 8.017 0 0 0 0 16.034h17.102a8.017 8.017 0 0 0 0-16.034zm25.653-34.205h-17.102a8.017 8.017 0 0 0 0 16.034h17.102a8.017 8.017 0 0 0 0-16.034zm119.717-34.204H350.063a8.017 8.017 0 0 0 0 16.034h111.165a8.017 8.017 0 0 0 0-16.034zm0 68.409H350.063a8.017 8.017 0 0 0 0 16.034h111.165a8.017 8.017 0 0 0 0-16.034zm0-34.205h-85.511a8.017 8.017 0 0 0 0 16.034h85.511a8.017 8.017 0 0 0 0-16.034zm-119.717 68.409h-17.102a8.017 8.017 0 0 0 0 16.034h17.102a8.017 8.017 0 0 0 0-16.034zm119.717 0h-85.511a8.017 8.017 0 0 0 0 16.034h85.511a8.017 8.017 0 0 0 0-16.034z"/>
    </symbol>
    
    <symbol id="icon-coding" viewBox="0 0 480 480">
      <title>icon-coding</title>
      <path d="M56 416c-30.872 0-56 25.128-56 56 0 4.424 3.576 8 8 8h96c4.424 0 8-3.576 8-8 0-30.872-25.128-56-56-56zm-39.192 48C19.992 448.36 32.36 436.072 48 432.88V448h16v-15.12c15.64 3.2 28.008 15.48 31.192 31.12H16.808zM472 344h-14.032a83.97 83.97 0 0 0-1.392-3.328l9.928-9.928a7.991 7.991 0 0 0 0-11.312l-33.936-33.936c-1.656-1.656-3.84-2.376-6.008-2.272C439.24 276.496 448 263.32 448 248V40c0-22.056-17.944-40-40-40H40C17.944 0 0 17.944 0 40v208c0 22.056 17.944 40 40 40h104.4l-30.224 56H100c-15.44 0-28 12.56-28 28s12.56 28 28 28h172c0 4.424 3.576 8 8 8h14.032a83.97 83.97 0 0 0 1.392 3.328l-9.928 9.928a7.991 7.991 0 0 0 0 11.312l33.936 33.936a7.991 7.991 0 0 0 11.312 0l9.928-9.928a83.97 83.97 0 0 0 3.328 1.392V472c0 4.424 3.576 8 8 8h48c4.424 0 8-3.576 8-8v-14.032a83.97 83.97 0 0 0 3.328-1.392l9.928 9.928a7.991 7.991 0 0 0 11.312 0l33.936-33.936a7.991 7.991 0 0 0 0-11.312l-9.928-9.928a83.97 83.97 0 0 0 1.392-3.328H472c4.424 0 8-3.576 8-8v-48c0-4.424-3.576-8-8-8zM16 40c0-13.232 10.768-24 24-24h368c13.232 0 24 10.768 24 24v168H16V40zm24 232c-13.232 0-24-10.768-24-24v-24h416v24c0 13.232-10.768 24-24 24H40zm381.152 13.6l-9.824 9.824a83.97 83.97 0 0 0-3.328-1.392V288c4.632 0 9.008-.944 13.152-2.4zM344 288v6.032a83.97 83.97 0 0 0-3.328 1.392L333.248 288H344zm-27.08 0l-6.896 6.896-4.696-6.896h11.592zM272 384H100c-6.616 0-12-5.384-12-12s5.384-12 12-12h172v24zm-139.644-40.008L162.576 288h123.392l12.544 18.408-13.016 13.016a7.991 7.991 0 0 0 0 11.312l9.928 9.928a83.97 83.97 0 0 0-1.392 3.328H132.356zM464 392h-11.672a8.005 8.005 0 0 0-7.632 5.592c-1.216 3.864-2.856 7.8-4.88 11.672a8.002 8.002 0 0 0 1.44 9.36l8.288 8.288-22.624 22.624-8.288-8.288a8.017 8.017 0 0 0-9.36-1.44c-3.872 2.024-7.808 3.664-11.672 4.88a8.019 8.019 0 0 0-5.6 7.64V464h-32v-11.672a8.005 8.005 0 0 0-5.592-7.632c-3.864-1.216-7.8-2.856-11.672-4.88a8.015 8.015 0 0 0-9.36 1.44l-8.288 8.288-22.624-22.624 8.288-8.288a8.002 8.002 0 0 0 1.44-9.36c-2.024-3.872-3.664-7.808-4.88-11.672a8.019 8.019 0 0 0-7.64-5.6H288v-32h11.672a8.005 8.005 0 0 0 7.632-5.592c1.216-3.864 2.856-7.8 4.88-11.672a8.002 8.002 0 0 0-1.44-9.36l-8.288-8.288 22.624-22.624 8.288 8.288a7.99 7.99 0 0 0 9.36 1.44c3.872-2.024 7.808-3.664 11.672-4.88a8.019 8.019 0 0 0 5.6-7.64V288h32v11.672a8.005 8.005 0 0 0 5.592 7.632c3.864 1.216 7.8 2.856 11.672 4.88a7.992 7.992 0 0 0 9.36-1.44l8.288-8.288 22.624 22.624-8.288 8.288a8.002 8.002 0 0 0-1.44 9.36c2.024 3.872 3.664 7.808 4.88 11.672a8.019 8.019 0 0 0 7.64 5.6H464v32z" fill="#FFF"/><path d="M376 328c-26.472 0-48 21.528-48 48s21.528 48 48 48 48-21.528 48-48-21.528-48-48-48zm0 80c-17.648 0-32-14.352-32-32s14.352-32 32-32 32 14.352 32 32-14.352 32-32 32zM157.656 61.656l-11.312-11.312-56 56a7.991 7.991 0 0 0 0 11.312l56 56 11.312-11.312L107.312 112l50.344-50.344zm176 44.688l-56-56-11.312 11.312L316.688 112l-50.344 50.344 11.312 11.312 56-56a7.991 7.991 0 0 0 0-11.312z" fill="#FFF"/><path transform="rotate(-63.435 211.993 104.022)" fill="#FFF" d="M131.509 96.019h160.955v16H131.509z"/><path fill="#FFF" d="M312 160h16v16h-16zm32 0h16v16h-16zm32 0h16v16h-16z"/>
    </symbol>

    <symbol id="icon-coding-1" viewBox="0 0 491.52 491.52">
      <title>icon-coding-1</title>
      <path d="M491.52 399.36V20.48H0v378.88h153.6v51.2h-40.96v20.48h266.24v-20.48h-40.96v-51.2h153.6zM20.48 40.96h450.56v276.48H20.48V40.96zm296.96 409.6H174.08v-51.2h143.36v51.2zM20.48 378.88v-40.96h450.56v40.96H20.48z" fill="#FFF"/><path fill="#FFF" d="M307.2 61.44h133.12v20.48H307.2zm-71.68 0h51.2v20.48h-51.2zm-40.96 0h20.48v20.48h-20.48zm-40.96 0h20.48v20.48H153.6zm163.84 153.6h122.88v20.48H317.44zm-40.96 0h20.48v20.48h-20.48zm-40.96 0H256v20.48h-20.48zm102.4-51.2h102.4v20.48h-102.4zm-143.36 0h122.88v20.48H194.56zm30.72-51.2h40.96v20.48h-40.96zm61.44 0h153.6v20.48h-153.6zm-235.52 0h153.6v20.48H51.2zm194.56 153.6h194.56v20.48H245.76zm-69.56-63.56l-14.48 14.48 28.6 28.6-28.6 28.6 14.48 14.48 43.08-43.08zm-81.92 14.48L79.8 202.68l-43.08 43.08 43.08 43.08 14.48-14.48-28.6-28.6z"/><path transform="rotate(-68.217 128.001 245.777)" fill="#FFF" d="M72.86 235.538h110.281v20.48H72.86z"/>
    </symbol>

    <symbol id="icon-wordpress" viewBox="0 0 512 512">
      <title>icon-wordpress</title>
      <path d="M503.686 79.457C491.8 49.286 479 39.229 427.8 39.229c-31.086 0-54.857 23.771-54.857 54.857 0 16.457 9.143 32 18.286 48.457 2.743 6.4 7.314 12.8 10.057 19.2l3.657 7.314c8.229 16.457 13.714 28.343 13.714 53.029 0 10.057-1.829 21.029-6.4 36.571v.914l-30.171 90.514-78.356-222.007c2.651-.342 5.303-.699 7.956-1.078 14.629 0 26.514-12.8 26.514-27.429 0-15.543-11.886-27.429-27.429-27.429h-1.829c-35.657 5.486-71.314 5.486-106.971 0h-1.829c-15.543 0-27.429 11.886-27.429 27.429C172.714 114.2 184.6 127 199.229 127c3.063.459 6.158.882 9.264 1.286L245.857 223l-45.714 134.4-82.293-230.244c.307-.053.614-.101.921-.156 14.629-.914 26.514-12.8 26.514-27.429 0-15.543-11.886-27.429-27.429-27.429h-1.829c-29.257 5.486-58.514 5.486-87.771 0h-1.829C10.886 72.143-1 84.029-1 99.571c0 14.373 11.476 26.09 25.752 27.363L137.057 434.2c6.4 17.371 20.114 30.171 38.4 34.743 4.571.914 8.229 1.829 12.8 1.829 22.857 0 44.8-15.543 52.114-37.486l52.114-155.429 54.857 155.429c4.571 12.8 13.714 21.943 23.771 25.6 9.143 3.657 19.2 2.743 28.343-1.829 11.886-4.571 21.029-14.629 24.686-26.514L491.8 227.571c15.543-39.314 19.2-74.057 19.2-96v-14.629c0-12.799-1.829-25.599-7.314-37.485zm-303.543 29.257c-5.486 0-9.143-3.657-9.143-9.143 0-4.571 3.657-9.143 8.229-9.143 37.486 6.4 74.057 6.4 112.457 0 4.571 0 8.229 4.571 8.229 9.143 0 5.486-3.657 9.143-9.143 9.143h-1.829c-5.44.837-10.879 1.53-16.319 2.112a14.227 14.227 0 0 0-2.881-.283 334.267 334.267 0 0 1-74.057 0l-.052.002a357.019 357.019 0 0 1-13.662-1.831h-1.829zM17.286 99.571c0-4.571 3.657-9.143 8.229-9.143 31.086 6.4 62.171 6.4 93.257 0 4.571 0 8.229 4.571 8.229 9.143 0 5.486-3.657 9.143-9.143 9.143h-1.829a244.044 244.044 0 0 1-11.349 1.849c-.178-.008-.356-.02-.537-.02-1.527.244-3.059.469-4.594.681-21.34 2.499-42.679 2.065-64.019-1.273-.596-.109-1.192-.208-1.787-.322-.08 0-.16.007-.24.008a246.207 246.207 0 0 1-5.246-.922h-1.829c-5.485-.001-9.142-3.658-9.142-9.144zM491.8 132.486c0 20.114-2.743 53.029-17.371 89.6l-68.571 202.971c-2.743 7.314-8.229 12.8-15.543 15.543-4.571 1.829-9.143 2.743-13.714.914-5.486-1.829-10.971-7.314-13.714-14.629l-64-179.2c-.914-3.657-4.571-6.4-8.229-6.4-3.657 0-7.314 2.743-8.229 6.4L223 426.886c-5.486 17.371-24.686 28.343-42.971 23.771-11.886-2.743-21.029-10.971-25.6-22.857L45.708 129.96c8.812 1.009 17.623 1.612 26.435 1.612 9.155 0 18.31-.647 27.464-1.729l93.221 258.643c.914 3.657 4.571 6.4 8.229 6.4 3.657 0 7.314-2.743 8.229-6.4l54.857-162.743c.914-1.829.914-4.571 0-6.4l-34.445-88.832c8.508.668 17 1.061 25.302 1.061 9.879 0 20.03-.547 30.299-1.471l89.472 251.071c.914 3.657 4.571 6.4 8.229 6.4s7.314-2.743 8.229-6.4l38.4-114.286c.914-.914.914-.914.914-1.829 5.486-17.371 7.314-31.086 7.314-42.057 0-29.257-7.314-43.886-15.543-61.257l-3.657-7.314c-3.657-6.4-7.314-13.714-10.971-20.114-8.229-13.715-15.543-27.429-15.543-39.315 0-23.771 19.2-36.571 36.571-36.571 47.543 0 51.2 9.143 57.6 28.343 3.657 9.143 5.486 19.2 5.486 30.171v15.543z" fill="#FFF" transform="translate(1 1)"/>
    </symbol>

    <symbol id="icon-multimedia" viewBox="0 0 512 512">
      <title>icon-multimedia</title>
      <path d="M59 0H1C.4 0 0 .4 0 1v58c0 .6.4 1 1 1h58c.6 0 1-.4 1-1V1c0-.6-.4-1-1-1zm-1 2v8H2V2h56zM2 58V12h56v46H2z"/><path d="M5 5h5v2H5zm8 0h5v2h-5zm23 25H6c-.6 0-1 .4-1 1v23c0 .6.4 1 1 1h30c.6 0 1-.4 1-1V31c0-.6-.4-1-1-1zm-1 23H7V32h28v21zm19-38H23c-.6 0-1 .4-1 1v10c0 .6.4 1 1 1h31c.6 0 1-.4 1-1V16c0-.6-.4-1-1-1zm-1 10H24v-8h29v8zM6 27h12c.6 0 1-.4 1-1V16c0-.6-.4-1-1-1H6c-.6 0-1 .4-1 1v10c0 .6.4 1 1 1zm1-2v-3h10v3H7zm10-8v3H7v-3h10zm23 14h15v2H40zm0 5h15v2H40zm0 5h15v2H40zm0 5h15v2H40zm0 5h15v2H40z"/><path d="M19 48h4v2h-4zm-6 0h4v2h-4zm12 0h4v2h-4z"/>
    </symbol>

</defs><symbol id="sprite">
  </symbol></svg>